<?xml version="1.0" encoding="utf-8"?>
<!-- Generator: Adobe Illustrator 24.2.3, SVG Export Plug-In . SVG Version: 6.00 Build 0)  -->
<svg version="1.1" id="Layer_1" xmlns="http://www.w3.org/2000/svg" xmlns:xlink="http://www.w3.org/1999/xlink" x="0px" y="0px"
	 viewBox="0 0 306 306" style="enable-background:new 0 0 306 306;" xml:space="preserve">
<style type="text/css">
	.st0{fill:#4EC9F5;}
	.st1{fill:#ED2024;}
	.st2{fill:#2A3490;}
	.st3{fill:#FFC709;}
	.st4{fill:#16AD4B;}
</style>
<g>
	<circle class="st0" cx="153" cy="153" r="153"/>
	<g>
		<path d="M122.66,178.24c0,2.82,2.28,5.1,5.1,5.1h50.48c2.82,0,5.1-2.28,5.1-5.1v-50.48c0-2.82-2.28-5.1-5.1-5.1h-50.48
			c-2.82,0-5.1,2.28-5.1,5.1V178.24z"/>
	</g>
	<g>
		<path class="st1" d="M86.48,138.72c0,2.82,2.28,5.1,5.1,5.1h36.94c2.82,0,5.1-2.28,5.1-5.1v-36.94c0-2.82-2.28-5.1-5.1-5.1H91.58
			c-2.82,0-5.1,2.28-5.1,5.1V138.72z"/>
	</g>
	<g>
		<path class="st2" d="M36.65,181.67c0,2.82,2.28,5.1,5.1,5.1H78.7c2.82,0,5.1-2.28,5.1-5.1v-36.94c0-2.82-2.28-5.1-5.1-5.1H41.75
			c-2.82,0-5.1,2.28-5.1,5.1V181.67z"/>
	</g>
	<g>
		<path class="st1" d="M139.63,265.42c0,2.82,2.28,5.1,5.1,5.1h36.94c2.82,0,5.1-2.28,5.1-5.1v-36.94c0-2.82-2.28-5.1-5.1-5.1
			h-36.94c-2.82,0-5.1,2.28-5.1,5.1V265.42z"/>
	</g>
	<g>
		<path class="st3" d="M223.38,161.27c0,2.82,2.28,5.1,5.1,5.1h36.94c2.82,0,5.1-2.28,5.1-5.1v-36.94c0-2.82-2.28-5.1-5.1-5.1
			h-36.94c-2.82,0-5.1,2.28-5.1,5.1V161.27z"/>
	</g>
	<g>
		<path class="st4" d="M119.23,77.52c0,2.82,2.28,5.1,5.1,5.1h36.94c2.82,0,5.1-2.28,5.1-5.1V40.58c0-2.82-2.28-5.1-5.1-5.1h-36.94
			c-2.82,0-5.1,2.28-5.1,5.1V77.52z"/>
	</g>
	<g>
		<path class="st4" d="M44.5,119.5c0,2.82,2.28,5.1,5.1,5.1h18.9c2.82,0,5.1-2.28,5.1-5.1v-18.9c0-2.82-2.28-5.1-5.1-5.1H49.6
			c-2.82,0-5.1,2.28-5.1,5.1V119.5z"/>
	</g>
	<g>
		<path class="st3" d="M36.38,83.49c0,2.82,2.28,5.1,5.1,5.1h8.08c2.82,0,5.1-2.28,5.1-5.1v-8.08c0-2.82-2.28-5.1-5.1-5.1h-8.08
			c-2.82,0-5.1,2.28-5.1,5.1V83.49z"/>
	</g>
	<g>
		<path class="st1" d="M19.31,107.97c0,2.82,2.28,5.1,5.1,5.1h8.08c2.82,0,5.1-2.28,5.1-5.1v-8.08c0-2.82-2.28-5.1-5.1-5.1h-8.08
			c-2.82,0-5.1,2.28-5.1,5.1V107.97z"/>
	</g>
	<g>
		<path class="st4" d="M7.17,146.84c0,2.82,2.28,5.1,5.1,5.1h8.08c2.82,0,5.1-2.28,5.1-5.1v-8.08c0-2.82-2.28-5.1-5.1-5.1h-8.08
			c-2.82,0-5.1,2.28-5.1,5.1V146.84z"/>
	</g>
	<g>
		<path class="st3" d="M7.17,181.67c0,2.82,2.28,5.1,5.1,5.1h8.08c2.82,0,5.1-2.28,5.1-5.1v-8.08c0-2.82-2.28-5.1-5.1-5.1h-8.08
			c-2.82,0-5.1,2.28-5.1,5.1V181.67z"/>
	</g>
	<g>
		<path class="st2" d="M133.66,293.73c0,2.82,2.28,5.1,5.1,5.1h8.08c2.82,0,5.1-2.28,5.1-5.1v-8.08c0-2.82-2.28-5.1-5.1-5.1h-8.08
			c-2.82,0-5.1,2.28-5.1,5.1V293.73z"/>
	</g>
	<g>
		<path class="st4" d="M168.49,293.73c0,2.82,2.28,5.1,5.1,5.1h8.08c2.82,0,5.1-2.28,5.1-5.1v-8.08c0-2.82-2.28-5.1-5.1-5.1h-8.08
			c-2.82,0-5.1,2.28-5.1,5.1V293.73z"/>
	</g>
	<g>
		<path class="st1" d="M280.56,167.24c0,2.82,2.28,5.1,5.1,5.1h8.08c2.82,0,5.1-2.28,5.1-5.1v-8.08c0-2.82-2.28-5.1-5.1-5.1h-8.08
			c-2.82,0-5.1,2.28-5.1,5.1V167.24z"/>
	</g>
	<g>
		<path class="st2" d="M280.56,132.41c0,2.82,2.28,5.1,5.1,5.1h8.08c2.82,0,5.1-2.28,5.1-5.1v-8.08c0-2.82-2.28-5.1-5.1-5.1h-8.08
			c-2.82,0-5.1,2.28-5.1,5.1V132.41z"/>
	</g>
	<g>
		<path class="st3" d="M154.06,20.34c0,2.82,2.28,5.1,5.1,5.1h8.08c2.82,0,5.1-2.28,5.1-5.1v-8.08c0-2.82-2.28-5.1-5.1-5.1h-8.08
			c-2.82,0-5.1,2.28-5.1,5.1V20.34z"/>
	</g>
	<g>
		<path class="st1" d="M119.23,20.34c0,2.82,2.28,5.1,5.1,5.1h8.08c2.82,0,5.1-2.28,5.1-5.1v-8.08c0-2.82-2.28-5.1-5.1-5.1h-8.08
			c-2.82,0-5.1,2.28-5.1,5.1V20.34z"/>
	</g>
	<g>
		<path class="st3" d="M85.3,78.7c0,2.82,2.28,5.1,5.1,5.1h18.9c2.82,0,5.1-2.28,5.1-5.1V59.8c0-2.82-2.28-5.1-5.1-5.1H90.4
			c-2.82,0-5.1,2.28-5.1,5.1V78.7z"/>
	</g>
	<g>
		<path class="st4" d="M60.11,59.75c0,2.82,2.28,5.1,5.1,5.1h8.08c2.82,0,5.1-2.28,5.1-5.1v-8.08c0-2.82-2.28-5.1-5.1-5.1h-8.08
			c-2.82,0-5.1,2.28-5.1,5.1V59.75z"/>
	</g>
	<g>
		<path class="st2" d="M84.59,42.69c0,2.82,2.28,5.1,5.1,5.1h8.08c2.82,0,5.1-2.28,5.1-5.1v-8.08c0-2.82-2.28-5.1-5.1-5.1h-8.08
			c-2.82,0-5.1,2.28-5.1,5.1V42.69z"/>
	</g>
	<g>
		<path class="st4" d="M70.31,264.52c0,2.82,2.28,5.1,5.1,5.1h8.08c2.82,0,5.1-2.28,5.1-5.1v-8.08c0-2.82-2.28-5.1-5.1-5.1h-8.08
			c-2.82,0-5.1,2.28-5.1,5.1V264.52z"/>
	</g>
	<g>
		<path class="st3" d="M94.79,281.59c0,2.82,2.28,5.1,5.1,5.1h8.08c2.82,0,5.1-2.28,5.1-5.1v-8.08c0-2.82-2.28-5.1-5.1-5.1h-8.08
			c-2.82,0-5.1,2.28-5.1,5.1V281.59z"/>
	</g>
	<g>
		<path class="st2" d="M46.58,240.79c0,2.82,2.28,5.1,5.1,5.1h8.08c2.82,0,5.1-2.28,5.1-5.1v-8.08c0-2.82-2.28-5.1-5.1-5.1h-8.08
			c-2.82,0-5.1,2.28-5.1,5.1V240.79z"/>
	</g>
	<g>
		<path class="st1" d="M29.51,216.31c0,2.82,2.28,5.1,5.1,5.1h8.08c2.82,0,5.1-2.28,5.1-5.1v-8.08c0-2.82-2.28-5.1-5.1-5.1h-8.08
			c-2.82,0-5.1,2.28-5.1,5.1V216.31z"/>
	</g>
	<g>
		<path class="st2" d="M251.35,230.59c0,2.82,2.28,5.1,5.1,5.1h8.08c2.82,0,5.1-2.28,5.1-5.1v-8.08c0-2.82-2.28-5.1-5.1-5.1h-8.08
			c-2.82,0-5.1,2.28-5.1,5.1V230.59z"/>
	</g>
	<g>
		<path class="st4" d="M268.41,206.11c0,2.82,2.28,5.1,5.1,5.1h8.08c2.82,0,5.1-2.28,5.1-5.1v-8.08c0-2.82-2.28-5.1-5.1-5.1h-8.08
			c-2.82,0-5.1,2.28-5.1,5.1V206.11z"/>
	</g>
	<g>
		<path class="st1" d="M227.61,254.32c0,2.82,2.28,5.1,5.1,5.1h8.08c2.82,0,5.1-2.28,5.1-5.1v-8.08c0-2.82-2.28-5.1-5.1-5.1h-8.08
			c-2.82,0-5.1,2.28-5.1,5.1V254.32z"/>
	</g>
	<g>
		<path class="st3" d="M203.13,271.39c0,2.82,2.28,5.1,5.1,5.1h8.08c2.82,0,5.1-2.28,5.1-5.1v-8.08c0-2.82-2.28-5.1-5.1-5.1h-8.08
			c-2.82,0-5.1,2.28-5.1,5.1V271.39z"/>
	</g>
	<g>
		<path class="st1" d="M220.05,49.48c0,2.82,2.28,5.1,5.1,5.1h8.23c2.82,0,5.1-2.28,5.1-5.1v-8.23c0-2.82-2.28-5.1-5.1-5.1h-8.23
			c-2.82,0-5.1,2.28-5.1,5.1V49.48z"/>
	</g>
	<g>
		<path class="st2" d="M195.73,32.19c0,2.82,2.28,5.1,5.1,5.1h8.23c2.82,0,5.1-2.28,5.1-5.1v-8.23c0-2.82-2.28-5.1-5.1-5.1h-8.23
			c-2.82,0-5.1,2.28-5.1,5.1V32.19z"/>
	</g>
	<g>
		<path class="st3" d="M243.57,73.43c0,2.82,2.28,5.1,5.1,5.1h8.23c2.82,0,5.1-2.28,5.1-5.1v-8.23c0-2.82-2.28-5.1-5.1-5.1h-8.23
			c-2.82,0-5.1,2.28-5.1,5.1V73.43z"/>
	</g>
	<g>
		<path class="st4" d="M260.41,98.07c0,2.82,2.28,5.1,5.1,5.1h8.23c2.82,0,5.1-2.28,5.1-5.1v-8.23c0-2.82-2.28-5.1-5.1-5.1h-8.23
			c-2.82,0-5.1,2.28-5.1,5.1V98.07z"/>
	</g>
	<g>
		<path class="st3" d="M96.68,214.42c0,2.82,2.28,5.1,5.1,5.1h36.94c2.82,0,5.1-2.28,5.1-5.1v-36.94c0-2.82-2.28-5.1-5.1-5.1h-36.94
			c-2.82,0-5.1,2.28-5.1,5.1V214.42z"/>
	</g>
	<g>
		<path class="st2" d="M95.5,256.4c0,2.82,2.28,5.1,5.1,5.1h18.9c2.82,0,5.1-2.28,5.1-5.1v-18.9c0-2.82-2.28-5.1-5.1-5.1h-18.9
			c-2.82,0-5.1,2.28-5.1,5.1V256.4z"/>
	</g>
	<g>
		<path class="st4" d="M54.7,215.6c0,2.82,2.28,5.1,5.1,5.1h18.9c2.82,0,5.1-2.28,5.1-5.1v-18.9c0-2.82-2.28-5.1-5.1-5.1H59.8
			c-2.82,0-5.1,2.28-5.1,5.1V215.6z"/>
	</g>
	<g>
		<path class="st4" d="M172.38,204.22c0,2.82,2.28,5.1,5.1,5.1h36.94c2.82,0,5.1-2.28,5.1-5.1v-36.94c0-2.82-2.28-5.1-5.1-5.1
			h-36.94c-2.82,0-5.1,2.28-5.1,5.1V204.22z"/>
	</g>
	<g>
		<path class="st1" d="M232.4,205.4c0,2.82,2.28,5.1,5.1,5.1h18.9c2.82,0,5.1-2.28,5.1-5.1v-18.9c0-2.82-2.28-5.1-5.1-5.1h-18.9
			c-2.82,0-5.1,2.28-5.1,5.1V205.4z"/>
	</g>
	<g>
		<path class="st2" d="M191.6,246.2c0,2.82,2.28,5.1,5.1,5.1h18.9c2.82,0,5.1-2.28,5.1-5.1v-18.9c0-2.82-2.28-5.1-5.1-5.1h-18.9
			c-2.82,0-5.1,2.28-5.1,5.1V246.2z"/>
	</g>
	<g>
		<path class="st2" d="M162.18,128.52c0,2.82,2.28,5.1,5.1,5.1h36.94c2.82,0,5.1-2.28,5.1-5.1V91.58c0-2.82-2.28-5.1-5.1-5.1h-36.94
			c-2.82,0-5.1,2.28-5.1,5.1V128.52z"/>
	</g>
	<g>
		<path class="st3" d="M181.4,68.5c0,2.82,2.28,5.1,5.1,5.1h18.9c2.82,0,5.1-2.28,5.1-5.1V49.6c0-2.82-2.28-5.1-5.1-5.1h-18.9
			c-2.82,0-5.1,2.28-5.1,5.1V68.5z"/>
	</g>
	<g>
		<path class="st1" d="M222.2,109.3c0,2.82,2.28,5.1,5.1,5.1h18.9c2.82,0,5.1-2.28,5.1-5.1V90.4c0-2.82-2.28-5.1-5.1-5.1h-18.9
			c-2.82,0-5.1,2.28-5.1,5.1V109.3z"/>
	</g>
</g>
</svg>
